<svg id="visual" viewBox="0 0 1300 800" width="1300" height="800" xmlns="http://www.w3.org/2000/svg" xmlns:xlink="http://www.w3.org/1999/xlink" version="1.1"><path d="M0 129L19.7 121C39.3 113 78.7 97 118 89C157.3 81 196.7 81 236.2 94.3C275.7 107.7 315.3 134.3 354.8 133C394.3 131.7 433.7 102.3 473 95.7C512.3 89 551.7 105 591 133C630.3 161 669.7 201 709 199.7C748.3 198.3 787.7 155.7 827 147.7C866.3 139.7 905.7 166.3 945.2 161C984.7 155.7 1024.3 118.3 1063.8 111.7C1103.3 105 1142.7 129 1182 141C1221.3 153 1260.7 153 1280.3 153L1300 153L1300 0L1280.3 0C1260.7 0 1221.3 0 1182 0C1142.7 0 1103.3 0 1063.8 0C1024.3 0 984.7 0 945.2 0C905.7 0 866.3 0 827 0C787.7 0 748.3 0 709 0C669.7 0 630.3 0 591 0C551.7 0 512.3 0 473 0C433.7 0 394.3 0 354.8 0C315.3 0 275.7 0 236.2 0C196.7 0 157.3 0 118 0C78.7 0 39.3 0 19.7 0L0 0Z" fill="#6198ff"></path><path d="M0 377L19.7 371.7C39.3 366.3 78.7 355.7 118 366.3C157.3 377 196.7 409 236.2 411.7C275.7 414.3 315.3 387.7 354.8 391.7C394.3 395.7 433.7 430.3 473 441C512.3 451.7 551.7 438.3 591 439.7C630.3 441 669.7 457 709 446.3C748.3 435.7 787.7 398.3 827 371.7C866.3 345 905.7 329 945.2 309C984.7 289 1024.3 265 1063.8 269C1103.3 273 1142.7 305 1182 321C1221.3 337 1260.7 337 1280.3 337L1300 337L1300 151L1280.3 151C1260.7 151 1221.3 151 1182 139C1142.7 127 1103.3 103 1063.8 109.7C1024.3 116.3 984.7 153.7 945.2 159C905.7 164.3 866.3 137.7 827 145.7C787.7 153.7 748.3 196.3 709 197.7C669.7 199 630.3 159 591 131C551.7 103 512.3 87 473 93.7C433.7 100.3 394.3 129.7 354.8 131C315.3 132.3 275.7 105.7 236.2 92.3C196.7 79 157.3 79 118 87C78.7 95 39.3 111 19.7 119L0 127Z" fill="#005fee"></path><path d="M0 601L19.7 605C39.3 609 78.7 617 118 618.3C157.3 619.7 196.7 614.3 236.2 607.7C275.7 601 315.3 593 354.8 595.7C394.3 598.3 433.7 611.7 473 605C512.3 598.3 551.7 571.7 591 578.3C630.3 585 669.7 625 709 638.3C748.3 651.7 787.7 638.3 827 629C866.3 619.7 905.7 614.3 945.2 609C984.7 603.7 1024.3 598.3 1063.8 594.3C1103.3 590.3 1142.7 587.7 1182 591.7C1221.3 595.7 1260.7 606.3 1280.3 611.7L1300 617L1300 335L1280.3 335C1260.7 335 1221.3 335 1182 319C1142.7 303 1103.3 271 1063.8 267C1024.3 263 984.7 287 945.2 307C905.7 327 866.3 343 827 369.7C787.7 396.3 748.3 433.7 709 444.3C669.7 455 630.3 439 591 437.7C551.7 436.3 512.3 449.7 473 439C433.7 428.3 394.3 393.7 354.8 389.7C315.3 385.7 275.7 412.3 236.2 409.7C196.7 407 157.3 375 118 364.3C78.7 353.7 39.3 364.3 19.7 369.7L0 375Z" fill="#004cbb"></path><path d="M0 689L19.7 691.7C39.3 694.3 78.7 699.7 118 706.3C157.3 713 196.7 721 236.2 713C275.7 705 315.3 681 354.8 675.7C394.3 670.3 433.7 683.7 473 683.7C512.3 683.7 551.7 670.3 591 678.3C630.3 686.3 669.7 715.7 709 719.7C748.3 723.7 787.7 702.3 827 690.3C866.3 678.3 905.7 675.7 945.2 678.3C984.7 681 1024.3 689 1063.8 690.3C1103.3 691.7 1142.7 686.3 1182 691.7C1221.3 697 1260.7 713 1280.3 721L1300 729L1300 615L1280.3 609.7C1260.7 604.3 1221.3 593.7 1182 589.7C1142.7 585.7 1103.3 588.3 1063.8 592.3C1024.3 596.3 984.7 601.7 945.2 607C905.7 612.3 866.3 617.7 827 627C787.7 636.3 748.3 649.7 709 636.3C669.7 623 630.3 583 591 576.3C551.7 569.7 512.3 596.3 473 603C433.7 609.7 394.3 596.3 354.8 593.7C315.3 591 275.7 599 236.2 605.7C196.7 612.3 157.3 617.7 118 616.3C78.7 615 39.3 607 19.7 603L0 599Z" fill="#005fee"></path><path d="M0 801L19.7 801C39.3 801 78.7 801 118 801C157.3 801 196.7 801 236.2 801C275.7 801 315.3 801 354.8 801C394.3 801 433.7 801 473 801C512.3 801 551.7 801 591 801C630.3 801 669.7 801 709 801C748.3 801 787.7 801 827 801C866.3 801 905.7 801 945.2 801C984.7 801 1024.3 801 1063.8 801C1103.3 801 1142.7 801 1182 801C1221.3 801 1260.7 801 1280.3 801L1300 801L1300 727L1280.3 719C1260.7 711 1221.3 695 1182 689.7C1142.7 684.3 1103.3 689.7 1063.8 688.3C1024.3 687 984.7 679 945.2 676.3C905.7 673.7 866.3 676.3 827 688.3C787.7 700.3 748.3 721.7 709 717.7C669.7 713.7 630.3 684.3 591 676.3C551.7 668.3 512.3 681.7 473 681.7C433.7 681.7 394.3 668.3 354.8 673.7C315.3 679 275.7 703 236.2 711C196.7 719 157.3 711 118 704.3C78.7 697.7 39.3 692.3 19.7 689.7L0 687Z" fill="#6198ff"></path></svg>