<svg id="visual" viewBox="0 0 1400 800" width="100%" height="800" xmlns="http://www.w3.org/2000/svg" xmlns:xlink="http://www.w3.org/1999/xlink" version="1.1"><path d="M0 129L21.2 121C42.3 113 84.7 97 127.2 89C169.7 81 212.3 81 254.8 94.3C297.3 107.7 339.7 134.3 382 133C424.3 131.7 466.7 102.3 509 95.7C551.3 89 593.7 105 636.2 133C678.7 161 721.3 201 763.8 199.7C806.3 198.3 848.7 155.7 891 147.7C933.3 139.7 975.7 166.3 1018 161C1060.3 155.7 1102.7 118.3 1145.2 111.7C1187.7 105 1230.3 129 1272.8 141C1315.3 153 1357.7 153 1378.8 153L1400 153L1400 0L1378.8 0C1357.7 0 1315.3 0 1272.8 0C1230.3 0 1187.7 0 1145.2 0C1102.7 0 1060.3 0 1018 0C975.7 0 933.3 0 891 0C848.7 0 806.3 0 763.8 0C721.3 0 678.7 0 636.2 0C593.7 0 551.3 0 509 0C466.7 0 424.3 0 382 0C339.7 0 297.3 0 254.8 0C212.3 0 169.7 0 127.2 0C84.7 0 42.3 0 21.2 0L0 0Z" fill="#214b8d"></path><path d="M0 377L21.2 371.7C42.3 366.3 84.7 355.7 127.2 366.3C169.7 377 212.3 409 254.8 411.7C297.3 414.3 339.7 387.7 382 391.7C424.3 395.7 466.7 430.3 509 441C551.3 451.7 593.7 438.3 636.2 439.7C678.7 441 721.3 457 763.8 446.3C806.3 435.7 848.7 398.3 891 371.7C933.3 345 975.7 329 1018 309C1060.3 289 1102.7 265 1145.2 269C1187.7 273 1230.3 305 1272.8 321C1315.3 337 1357.7 337 1378.8 337L1400 337L1400 151L1378.8 151C1357.7 151 1315.3 151 1272.8 139C1230.3 127 1187.7 103 1145.2 109.7C1102.7 116.3 1060.3 153.7 1018 159C975.7 164.3 933.3 137.7 891 145.7C848.7 153.7 806.3 196.3 763.8 197.7C721.3 199 678.7 159 636.2 131C593.7 103 551.3 87 509 93.7C466.7 100.3 424.3 129.7 382 131C339.7 132.3 297.3 105.7 254.8 92.3C212.3 79 169.7 79 127.2 87C84.7 95 42.3 111 21.2 119L0 127Z" fill="#022857"></path><path d="M0 601L21.2 605C42.3 609 84.7 617 127.2 618.3C169.7 619.7 212.3 614.3 254.8 607.7C297.3 601 339.7 593 382 595.7C424.3 598.3 466.7 611.7 509 605C551.3 598.3 593.7 571.7 636.2 578.3C678.7 585 721.3 625 763.8 638.3C806.3 651.7 848.7 638.3 891 629C933.3 619.7 975.7 614.3 1018 609C1060.3 603.7 1102.7 598.3 1145.2 594.3C1187.7 590.3 1230.3 587.7 1272.8 591.7C1315.3 595.7 1357.7 606.3 1378.8 611.7L1400 617L1400 335L1378.8 335C1357.7 335 1315.3 335 1272.8 319C1230.3 303 1187.7 271 1145.2 267C1102.7 263 1060.3 287 1018 307C975.7 327 933.3 343 891 369.7C848.7 396.3 806.3 433.7 763.8 444.3C721.3 455 678.7 439 636.2 437.7C593.7 436.3 551.3 449.7 509 439C466.7 428.3 424.3 393.7 382 389.7C339.7 385.7 297.3 412.3 254.8 409.7C212.3 407 169.7 375 127.2 364.3C84.7 353.7 42.3 364.3 21.2 369.7L0 375Z" fill="#002145"></path><path d="M0 689L21.2 691.7C42.3 694.3 84.7 699.7 127.2 706.3C169.7 713 212.3 721 254.8 713C297.3 705 339.7 681 382 675.7C424.3 670.3 466.7 683.7 509 683.7C551.3 683.7 593.7 670.3 636.2 678.3C678.7 686.3 721.3 715.7 763.8 719.7C806.3 723.7 848.7 702.3 891 690.3C933.3 678.3 975.7 675.7 1018 678.3C1060.3 681 1102.7 689 1145.2 690.3C1187.7 691.7 1230.3 686.3 1272.8 691.7C1315.3 697 1357.7 713 1378.8 721L1400 729L1400 615L1378.8 609.7C1357.7 604.3 1315.3 593.7 1272.8 589.7C1230.3 585.7 1187.7 588.3 1145.2 592.3C1102.7 596.3 1060.3 601.7 1018 607C975.7 612.3 933.3 617.7 891 627C848.7 636.3 806.3 649.7 763.8 636.3C721.3 623 678.7 583 636.2 576.3C593.7 569.7 551.3 596.3 509 603C466.7 609.7 424.3 596.3 382 593.7C339.7 591 297.3 599 254.8 605.7C212.3 612.3 169.7 617.7 127.2 616.3C84.7 615 42.3 607 21.2 603L0 599Z" fill="#022857"></path><path d="M0 801L21.2 801C42.3 801 84.7 801 127.2 801C169.7 801 212.3 801 254.8 801C297.3 801 339.7 801 382 801C424.3 801 466.7 801 509 801C551.3 801 593.7 801 636.2 801C678.7 801 721.3 801 763.8 801C806.3 801 848.7 801 891 801C933.3 801 975.7 801 1018 801C1060.3 801 1102.7 801 1145.2 801C1187.7 801 1230.3 801 1272.8 801C1315.3 801 1357.7 801 1378.8 801L1400 801L1400 727L1378.8 719C1357.7 711 1315.3 695 1272.8 689.7C1230.3 684.3 1187.7 689.7 1145.2 688.3C1102.7 687 1060.3 679 1018 676.3C975.7 673.7 933.3 676.3 891 688.3C848.7 700.3 806.3 721.7 763.8 717.7C721.3 713.7 678.7 684.3 636.2 676.3C593.7 668.3 551.3 681.7 509 681.7C466.7 681.7 424.3 668.3 382 673.7C339.7 679 297.3 703 254.8 711C212.3 719 169.7 711 127.2 704.3C84.7 697.7 42.3 692.3 21.2 689.7L0 687Z" fill="#214b8d"></path></svg>