<svg id="visual" viewBox="0 0 900 600" width="900" height="600" xmlns="http://www.w3.org/2000/svg" xmlns:xlink="http://www.w3.org/1999/xlink" version="1.1"><path d="M0 97L13.7 91C27.3 85 54.7 73 82 67C109.3 61 136.7 61 163.8 71C191 81 218 101 245.2 100C272.3 99 299.7 77 327 72C354.3 67 381.7 79 409 100C436.3 121 463.7 151 491 150C518.3 149 545.7 117 573 111C600.3 105 627.7 125 654.8 121C682 117 709 89 736.2 84C763.3 79 790.7 97 818 106C845.3 115 872.7 115 886.3 115L900 115L900 0L886.3 0C872.7 0 845.3 0 818 0C790.7 0 763.3 0 736.2 0C709 0 682 0 654.8 0C627.7 0 600.3 0 573 0C545.7 0 518.3 0 491 0C463.7 0 436.3 0 409 0C381.7 0 354.3 0 327 0C299.7 0 272.3 0 245.2 0C218 0 191 0 163.8 0C136.7 0 109.3 0 82 0C54.7 0 27.3 0 13.7 0L0 0Z" fill="#6198ff"></path><path d="M0 283L13.7 279C27.3 275 54.7 267 82 275C109.3 283 136.7 307 163.8 309C191 311 218 291 245.2 294C272.3 297 299.7 323 327 331C354.3 339 381.7 329 409 330C436.3 331 463.7 343 491 335C518.3 327 545.7 299 573 279C600.3 259 627.7 247 654.8 232C682 217 709 199 736.2 202C763.3 205 790.7 229 818 241C845.3 253 872.7 253 886.3 253L900 253L900 113L886.3 113C872.7 113 845.3 113 818 104C790.7 95 763.3 77 736.2 82C709 87 682 115 654.8 119C627.7 123 600.3 103 573 109C545.7 115 518.3 147 491 148C463.7 149 436.3 119 409 98C381.7 77 354.3 65 327 70C299.7 75 272.3 97 245.2 98C218 99 191 79 163.8 69C136.7 59 109.3 59 82 65C54.7 71 27.3 83 13.7 89L0 95Z" fill="#005fee"></path><path d="M0 451L13.7 454C27.3 457 54.7 463 82 464C109.3 465 136.7 461 163.8 456C191 451 218 445 245.2 447C272.3 449 299.7 459 327 454C354.3 449 381.7 429 409 434C436.3 439 463.7 469 491 479C518.3 489 545.7 479 573 472C600.3 465 627.7 461 654.8 457C682 453 709 449 736.2 446C763.3 443 790.7 441 818 444C845.3 447 872.7 455 886.3 459L900 463L900 251L886.3 251C872.7 251 845.3 251 818 239C790.7 227 763.3 203 736.2 200C709 197 682 215 654.8 230C627.7 245 600.3 257 573 277C545.7 297 518.3 325 491 333C463.7 341 436.3 329 409 328C381.7 327 354.3 337 327 329C299.7 321 272.3 295 245.2 292C218 289 191 309 163.8 307C136.7 305 109.3 281 82 273C54.7 265 27.3 273 13.7 277L0 281Z" fill="#004cbb"></path><path d="M0 517L13.7 519C27.3 521 54.7 525 82 530C109.3 535 136.7 541 163.8 535C191 529 218 511 245.2 507C272.3 503 299.7 513 327 513C354.3 513 381.7 503 409 509C436.3 515 463.7 537 491 540C518.3 543 545.7 527 573 518C600.3 509 627.7 507 654.8 509C682 511 709 517 736.2 518C763.3 519 790.7 515 818 519C845.3 523 872.7 535 886.3 541L900 547L900 461L886.3 457C872.7 453 845.3 445 818 442C790.7 439 763.3 441 736.2 444C709 447 682 451 654.8 455C627.7 459 600.3 463 573 470C545.7 477 518.3 487 491 477C463.7 467 436.3 437 409 432C381.7 427 354.3 447 327 452C299.7 457 272.3 447 245.2 445C218 443 191 449 163.8 454C136.7 459 109.3 463 82 462C54.7 461 27.3 455 13.7 452L0 449Z" fill="#005fee"></path><path d="M0 601L13.7 601C27.3 601 54.7 601 82 601C109.3 601 136.7 601 163.8 601C191 601 218 601 245.2 601C272.3 601 299.7 601 327 601C354.3 601 381.7 601 409 601C436.3 601 463.7 601 491 601C518.3 601 545.7 601 573 601C600.3 601 627.7 601 654.8 601C682 601 709 601 736.2 601C763.3 601 790.7 601 818 601C845.3 601 872.7 601 886.3 601L900 601L900 545L886.3 539C872.7 533 845.3 521 818 517C790.7 513 763.3 517 736.2 516C709 515 682 509 654.8 507C627.7 505 600.3 507 573 516C545.7 525 518.3 541 491 538C463.7 535 436.3 513 409 507C381.7 501 354.3 511 327 511C299.7 511 272.3 501 245.2 505C218 509 191 527 163.8 533C136.7 539 109.3 533 82 528C54.7 523 27.3 519 13.7 517L0 515Z" fill="#6198ff"></path></svg>