<?xml version="1.0" standalone="no"?><svg xmlns="http://www.w3.org/2000/svg" viewBox="0 0 1440 320"><path fill="#5000ca" fill-opacity="1" d="M0,0L26.7,16C53.3,32,107,64,160,90.7C213.3,117,267,139,320,128C373.3,117,427,75,480,64C533.3,53,587,75,640,96C693.3,117,747,139,800,128C853.3,117,907,75,960,74.7C1013.3,75,1067,117,1120,149.3C1173.3,181,1227,203,1280,213.3C1333.3,224,1387,224,1413,224L1440,224L1440,320L1413.3,320C1386.7,320,1333,320,1280,320C1226.7,320,1173,320,1120,320C1066.7,320,1013,320,960,320C906.7,320,853,320,800,320C746.7,320,693,320,640,320C586.7,320,533,320,480,320C426.7,320,373,320,320,320C266.7,320,213,320,160,320C106.7,320,53,320,27,320L0,320Z"></path></svg>